<svg width="128" height="128" viewBox="0 0 128 128" fill="none" xmlns="http://www.w3.org/2000/svg">
<path d="M6.823 0L61.9878 15.9927L78.8597 20.8979C81.8706 21.7873 86.4828 23.3095 89.4641 23.9736C89.9384 24.3924 91.1297 26.2528 91.5764 26.9086C93.0655 29.0873 94.5414 31.2759 96.004 33.4746C99.0139 37.9583 102.532 42.8529 105.383 47.3893L105.248 47.4709C104.484 48.3751 102.257 50.2598 101.26 51.1513C98.9119 53.2495 96.5803 55.3679 94.266 57.5062C93.8846 57.503 93.1063 57.4345 92.8208 57.6175C93.2563 57.6207 93.7203 57.6336 94.1528 57.6154C92.6219 58.9889 91.2388 60.3292 89.7456 61.7208L89.6181 61.845C90.943 64.2451 92.2894 66.6335 93.6561 69.009C94.6057 70.6844 95.8153 72.9228 96.8363 74.5115C96.6476 74.9814 95.389 76.6686 95.0004 77.2231L91.7927 81.8649L78.8067 100.827C76.9565 103.536 74.1414 107.342 72.5218 110.088C70.7032 108.096 68.7102 105.585 66.9661 103.484L57.9982 92.6901C57.1638 91.6806 55.9904 90.1733 55.0988 89.1627C54.8806 89.1445 54.6942 89.1284 54.5397 89.1156L55.0121 88.9722L40.4301 68.7628C38.8808 66.6421 37.3417 64.5128 35.8129 62.376C35.4789 61.9082 34.1762 60.1622 33.9636 59.7554C33.7035 59.5498 31.9231 56.9853 31.6376 56.5852L26.1598 48.9347C25.2852 47.7106 23.7123 45.4066 22.7864 44.3442C19.7069 39.9091 16.3745 35.563 13.3066 31.1077L23.8056 31.1197C23.042 29.869 22.1117 28.0082 21.3714 26.6582L16.014 16.8546C13.0219 11.3464 9.65458 5.54393 6.823 0Z" fill="#141920"/>
<path d="M33.9636 59.7552C39.9778 54.9396 46.0232 50.1666 52.0994 45.4373C56.1773 48.5062 60.1799 52.0129 64.247 55.1122C65.3067 55.9199 66.2899 56.8561 67.3752 57.6281L92.8208 57.6174C93.2563 57.6206 93.7204 57.6334 94.1528 57.6152C92.6219 58.9887 91.2388 60.329 89.7456 61.7207L89.6182 61.8449C90.9431 64.245 92.2894 66.6333 93.6561 69.0088C94.6057 70.6842 95.8154 72.9227 96.8363 74.5113C96.6476 74.9813 95.389 76.6685 95.0004 77.223L91.7927 81.8648L78.8067 100.827C76.9565 103.535 74.1415 107.342 72.5218 110.088C70.7032 108.096 68.7103 105.584 66.9662 103.484L57.9983 92.6899C57.1638 91.6804 55.9904 90.1731 55.0989 89.1626C54.8806 89.1444 54.6942 89.1283 54.5397 89.1155L55.0122 88.972L40.4302 68.7626C38.8809 66.6419 37.3417 64.5126 35.8129 62.3759C35.479 61.908 34.1763 60.162 33.9636 59.7552Z" fill="white"/>
<path d="M89.6185 61.845C90.9434 64.2451 92.2897 66.6334 93.6564 69.0089C94.606 70.6843 95.8157 72.9228 96.8366 74.5114C96.6479 74.9814 95.3893 76.6685 95.0007 77.2231L91.793 81.8649L78.807 100.827C76.9568 103.536 74.1418 107.342 72.5221 110.088C70.7035 108.096 68.7106 105.585 66.9665 103.484L57.9986 92.69C57.1642 91.6805 55.9907 90.1732 55.0992 89.1626C54.8809 89.1444 54.6946 89.1284 54.54 89.1155L55.0125 88.9721C56.2328 88.0632 57.5935 86.906 58.8368 85.9382L69.4011 77.6898L89.6185 61.845Z" fill="#E1E1E6"/>
<path d="M5.58545 92.7058L54.7167 88.6499L72.9339 109.509L67.4136 124.573L33.7393 106.032L5.58545 92.7058Z" fill="#CACACA"/>
<path d="M6.823 0L61.9878 15.9927L78.8597 20.8979C81.8706 21.7873 86.4828 23.3095 89.4641 23.9736C87.7404 25.822 85.7892 27.5221 83.987 29.2882C83.5953 29.6713 82.1491 30.9593 81.9185 31.259C81.4779 31.3407 78.7312 31.3006 78.1468 31.2995L69.4905 31.2877L35.8015 31.2321C34.6287 31.086 32.9918 31.1565 31.7935 31.1397C29.1539 31.1026 26.4401 31.212 23.8056 31.1196C23.042 29.869 22.1117 28.0082 21.3714 26.6582L16.014 16.8546C13.0219 11.3464 9.65458 5.54393 6.823 0Z" fill="#3C85DA"/>
<path d="M89.4643 23.9734C89.9386 24.3922 91.1299 26.2526 91.5767 26.9084C93.0658 29.0871 94.5416 31.2758 96.0042 33.4744C99.0141 37.9581 102.532 42.8527 105.384 47.3891L105.248 47.4707C103.397 47.4859 93.2871 47.1198 92.207 47.4737L96.2582 53.8468L82.2166 45.5138C81.2844 44.9563 75.4248 41.3129 74.9311 41.3038C67.2009 41.1605 54.9153 41.3527 47.5752 41.2505L35.8018 31.2319L69.4907 31.2875L78.147 31.2993C78.7314 31.3004 81.4782 31.3405 81.9188 31.2589C82.1493 30.9591 83.5956 29.6712 83.9872 29.288C85.7895 27.522 87.7406 25.8219 89.4643 23.9734Z" fill="white"/>
<path d="M89.4643 23.9734C89.9385 24.3922 91.1298 26.2526 91.5766 26.9084C93.0657 29.0871 94.5416 31.2758 96.0042 33.4744C99.014 37.9581 102.532 42.8527 105.384 47.3891L105.248 47.4707C103.397 47.4859 93.287 47.1198 92.2069 47.4737C88.9737 42.1421 85.3039 36.4986 81.9187 31.2589C82.1492 30.9591 83.5955 29.6712 83.9872 29.288C85.7894 27.522 87.7406 25.8219 89.4643 23.9734Z" fill="#1B5FB5"/>
<path d="M74.2345 44.0952C76.0276 43.7856 77.7187 45.0684 78.0012 46.9532C78.2837 48.8379 77.0496 50.6033 75.2514 50.8864C73.4716 51.1665 71.8101 49.8868 71.5307 48.0208C71.2512 46.1548 72.4588 44.4017 74.2345 44.0952Z" fill="white"/>
<path d="M22.7868 44.3442C23.7127 45.4066 25.2855 47.7106 26.1602 48.9348L31.638 56.5853C31.9235 56.9853 33.7039 59.5499 33.964 59.7554C34.1766 60.1622 35.4793 61.9082 35.8132 62.3761C37.342 64.5128 38.8812 66.6421 40.4305 68.7628L55.0125 88.9722L54.5401 89.1157C53.0664 89.1028 50.0329 89.4764 48.4804 89.6177L36.2997 90.7343L13.1227 92.8454C10.3166 93.1162 7.24993 93.3046 4.48169 93.6536C4.96973 92.4814 5.5048 90.8745 5.95918 89.6456L9.03851 81.334L17.4394 58.6742C19.1579 54.0205 20.9518 48.947 22.7868 44.3442Z" fill="#1B5FB5"/>
<path d="M19.639 73.203C20.9981 73.6056 23.562 74.716 24.9586 75.2847L33.6971 78.8326C34.1532 79.0187 37.0333 80.2384 37.3676 80.2722C37.7629 80.5037 39.8036 81.2848 40.337 81.5023C42.7766 82.4938 45.2216 83.4733 47.6711 84.44L70.8532 93.7511L70.51 94.1313C69.2041 94.9243 66.7208 96.8982 65.4242 97.8658L55.2563 105.464L35.902 119.911C33.5666 121.673 30.9592 123.507 28.6971 125.315C28.5284 124.047 28.179 122.383 27.9516 121.085L26.4193 112.304L4.64129 93.7504C7.24171 89.8087 20.3731 78.1363 19.639 73.203Z" fill="#1B5FB5"/>
<path d="M105.384 47.3889L120.277 58.1299C122.436 59.6918 125.237 61.6209 127.298 63.2438L128 63.7684C120.772 66.2017 113.557 68.6767 106.355 71.1925L100.138 73.3228C99.3385 73.598 97.5301 74.1739 96.8366 74.5111C95.8156 72.9225 94.6059 70.684 93.6564 69.0086C92.2896 66.6331 90.9433 64.2448 89.6184 61.8447L89.7459 61.7205C91.2391 60.3288 92.6221 58.9885 94.1531 57.615C93.7206 57.6332 93.2566 57.6204 92.821 57.6171C93.1066 57.4341 93.8849 57.5026 94.2663 57.5058C96.5806 55.3675 98.9122 53.2491 101.26 51.151C102.258 50.2594 104.484 48.3748 105.248 47.4705L105.384 47.3889Z" fill="#333946"/>
<path d="M89.7459 61.7209L116.976 63.0398C119.525 63.179 122.076 63.3032 124.627 63.4145C125.444 63.4423 126.586 63.6019 127.298 63.2443L128 63.7689C120.772 66.2022 113.557 68.6772 106.355 71.193L100.138 73.3233C99.3385 73.5984 97.5301 74.1744 96.8366 74.5116C95.8156 72.9229 94.6059 70.6845 93.6564 69.0091C92.2896 66.6336 90.9433 64.2453 89.6184 61.8451L89.7459 61.7209Z" fill="#141920"/>
</svg>
