<svg width="128" height="128" viewBox="0 0 128 128" fill="none" xmlns="http://www.w3.org/2000/svg">
<circle cx="64" cy="64" r="64" fill="#3A8EE6"/>
<mask id="mask0_15_71" style="mask-type:alpha" maskUnits="userSpaceOnUse" x="0" y="0" width="128" height="128">
<circle cx="64" cy="64" r="64" fill="#0071E7"/>
</mask>
<g mask="url(#mask0_15_71)">
<path d="M65.0896 10.9714C58.2154 19.2874 54.9886 30.4616 57.8608 41.0285C58.0855 41.8554 58.3657 42.6798 58.5337 43.5184C58.6637 44.2163 58.2937 45.7028 58.1074 46.427C57.3064 49.5408 56.2377 52.5933 54.1753 55.1098C52.3148 57.3802 50.1594 58.2552 47.6272 59.5179C40.5933 62.7364 33.5397 65.9946 26.8086 69.8111C25.7839 70.392 22.0989 72.3952 21.2968 73.0369C18.4316 74.6596 15.6968 76.4886 12.9227 78.2587C3.2612 84.4241 -5.47565 91.5523 -13.3084 99.9536C-13.9213 100.617 -16.1727 102.921 -16.3394 103.967C-16.358 104.086 -16.255 104.132 -16.1393 104.239C-14.5528 104.727 -9.84506 103.157 -8.08298 102.779C-9.4744 103.662 -11.8317 105.071 -13.1054 106.047C-11.7483 106.997 -3.79398 108.731 -1.80735 108.811C-0.832662 108.851 1.64817 108.923 2.50323 109.181C3.4583 109.894 4.67029 110.63 5.50377 111.413C5.87835 111.58 8.8024 113.915 9.62314 114.429C14.223 117.304 18.4394 119.136 23.6158 120.657C34.1937 123.662 43.642 122.956 53.7489 118.7C62.0531 115.382 71.0008 109.25 76.943 102.598C77.4776 102.024 77.8801 101.549 78.3716 100.944C83.8245 94.5162 84.9024 89.4753 86.0741 81.4477C86.5307 78.3188 87.1867 75.0098 87.6308 71.8309C88.4315 67.8171 89.1156 62.6288 91.1222 59.1123C93.135 55.5848 98.9516 54.6482 102.574 53.8551C105.509 53.2124 108.488 52.5347 111.425 51.9668C108.385 47.7746 98.9574 46.9133 94.1422 47.0381C93.9236 46.4629 93.7927 46.2198 93.4847 45.6815C92.5772 43.4057 91.0813 41.2765 89.794 39.2009C87.7807 35.9544 85.0385 33.4993 82.1895 31.0142C81.0449 30.0157 79.8452 28.8222 78.6168 27.9523C72.8054 22.3888 68.5595 18.5172 65.0896 10.9714Z" fill="white"/>
<path d="M65.0896 10.9714C58.2153 19.2874 54.9886 30.4616 57.8608 41.0285C58.0855 41.8554 58.3657 42.6798 58.5337 43.5184C58.6637 44.2163 58.2937 45.7028 58.1074 46.427C57.3064 49.5409 56.2376 52.5933 54.1753 55.1098C52.3148 57.3802 50.1594 58.2553 47.6272 59.5179C48.2247 62.0583 47.618 71.5301 46.8253 73.9185C48.9876 74.4806 51.0051 75.0366 53.227 75.4078C64.3032 77.2585 75.8352 76.3391 86.3216 72.2317C86.7707 72.0558 87.1397 71.8359 87.6308 71.8309C88.4315 67.8171 89.1156 62.6288 91.1222 59.1123C93.135 55.5848 98.9516 54.6482 102.574 53.8551C105.509 53.2124 108.488 52.5347 111.425 51.9668C108.385 47.7746 98.9574 46.9133 94.1422 47.0381C93.9236 46.4629 93.7927 46.2198 93.4847 45.6815C92.5772 43.4057 91.0813 41.2765 89.794 39.2009C87.7807 35.9544 85.0385 33.4994 82.1895 31.0142C81.0449 30.0157 79.8452 28.8222 78.6168 27.9523C72.8054 22.3888 68.5595 18.5172 65.0896 10.9714Z" fill="#00143B"/>
<path d="M93.4846 45.6815C92.5771 43.4057 91.0812 41.2765 89.794 39.2009C87.7807 35.9544 85.0384 33.4993 82.1895 31.0142C81.0448 30.0157 79.8451 28.8222 78.6168 27.9523C78.5381 28.4848 78.7109 29.2047 78.8128 29.7468C79.3738 32.7982 80.6261 35.6806 82.4741 38.1728C84.7112 41.1957 87.734 43.5478 91.214 44.9735C91.5577 45.1152 92.8855 45.617 93.2163 45.6605C93.3053 45.6727 93.3949 45.6798 93.4846 45.6815Z" fill="#0071E7"/>
<path d="M33.8844 97.6571C50.9379 82.0833 50.313 65.6385 47.8688 59.3628C6.60443 77.7096 -9.84465 96.6765 -13.8122 101.072C-16.9862 104.589 -15.8921 105.035 -14.9482 104.818L-7.87602 102.898L-12.4662 106.72L-7.76232 107.985C13.2871 111.117 28.7728 102.405 33.8844 97.6571Z" fill="#0071E7"/>
<path d="M19.7576 89.8589C26.6604 83.5987 26.6474 74.7493 25.778 71.1072C8.88801 79.2361 -4.31987 91.0397 -8.81255 95.9254C-4.64274 97.3856 -0.596785 97.8972 0.904965 97.9705C8.89688 98.3607 16.8033 92.7254 19.7576 89.8589Z" fill="#0038AD"/>
<path d="M53.7489 118.7C53.1631 118.232 52.7778 118.212 52.0676 118.073C43.4679 116.389 34.2455 116.689 25.9241 119.557C25.121 119.834 24.1414 119.886 23.6159 120.657C34.1937 123.662 43.642 122.956 53.7489 118.7Z" fill="#00143B"/>
<path d="M-13.1053 106.047C-14.8262 107.027 -17.005 108.535 -18.7141 109.638C-22.4364 112.028 -26.1439 114.442 -29.8367 116.878C-33.2393 119.1 -36.6242 121.35 -39.9905 123.628C-42.1948 125.121 -44.4148 126.631 -46.5044 128.282C-47.0035 128.676 -47.7046 129.255 -47.3928 129.923C-46.7309 130.366 -45.9602 130.149 -45.164 130.05C-46.3122 130.555 -49.8079 132.043 -49.0657 133.76C-48.3244 134.618 -46.6172 133.979 -45.77 133.575C-43.9706 136.104 -40.4916 136.646 -37.6979 135.672C-34.3219 134.495 -31.0369 132.838 -27.8609 131.2C-21.2009 127.726 -14.6595 124.03 -8.24659 120.119C-5.20585 118.294 -2.19551 116.42 0.783453 114.497C2.29255 113.533 4.08993 112.472 5.50391 111.413C4.67042 110.63 3.45843 109.894 2.50336 109.181C1.64831 108.923 -0.832527 108.851 -1.80721 108.811C-3.79384 108.731 -11.7482 106.997 -13.1053 106.047Z" fill="#00143B"/>
<path d="M72.4518 44.1678C74.9347 54.5678 63 64.4999 58.848 68.1677C52.348 76.1678 85.3481 71.6754 85.3481 68.1677C85.3481 59.1754 88.3333 56.6667 91 53.5C84.3333 47.1667 69.9688 33.7678 72.4518 44.1678Z" fill="white"/>
<circle cx="79" cy="49" r="3" fill="#00143B"/>
</g>
</svg>
